<svg width="76" height="76" viewBox="0 0 76 76" fill="none" xmlns="http://www.w3.org/2000/svg">
<path d="M0.5 0.5H75.5V39V75.5H0.5V0.5ZM67.1667 67.1667V8.83333H8.83333V67.1667H67.1667ZM15.0208 19.85V42.575C15.0208 52.9708 20.7208 59.0458 30.3667 59.0458C40.0125 59.0458 46.0125 52.85 46.0125 42.575V19.85H38.2417V42.575C38.2417 48.4542 35.7375 51.7104 30.5458 51.7104C25.3542 51.7104 22.775 48.2604 22.775 42.575V19.85H15.0042H15.0208ZM56.0292 24.4854C58.7896 24.4854 60.7833 22.6104 60.7833 19.85C60.7833 17.0896 58.7729 15.0958 56.0292 15.0958C53.2833 15.0958 51.275 17.0313 51.275 19.85C51.275 22.6708 53.2854 24.4854 56.0292 24.4854ZM52.1458 28.175V58.6708H59.9167V28.175H52.1458Z" fill="#F4511E"/>
</svg>
