<svg width="74" height="74" viewBox="0 0 74 74" fill="none" xmlns="http://www.w3.org/2000/svg">
<rect x="3.5" y="3.5" width="67" height="67" stroke="#2563EB" stroke-width="7"/>
<path d="M38.576 20.448V43.632C38.576 48.432 37.056 51.968 34.016 54.24C31.744 55.968 28.928 56.832 25.568 56.832C22.24 56.832 19.424 55.968 17.12 54.24C14.112 52 12.608 48.464 12.608 43.632V20.448H17.84V43.392C17.84 45.984 18.496 48.032 19.808 49.536C21.152 51.136 23.072 51.936 25.568 51.936C28.064 51.936 30.016 51.136 31.424 49.536C32.704 48.064 33.344 46.016 33.344 43.392V20.448H38.576ZM62.5059 56.064H56.6019L50.7939 46.56L44.6979 56.064H38.9379L47.9619 42.384L39.7539 30.144H45.7539L50.8899 38.256L56.1219 30.144H61.7859L53.7219 42.384L62.5059 56.064Z" fill="#2563EB"/>
</svg>
